<?xml version="1.0" encoding="UTF-8" standalone="no"?>
<!DOCTYPE svg PUBLIC "-//W3C//DTD SVG 1.1//EN" "http://www.w3.org/Graphics/SVG/1.1/DTD/svg11.dtd">
<svg width="100%" height="100%" viewBox="0 0 32 32" version="1.1" xmlns="http://www.w3.org/2000/svg" xmlns:xlink="http://www.w3.org/1999/xlink" xml:space="preserve" style="fill-rule:evenodd;clip-rule:evenodd;stroke-linecap:round;stroke-linejoin:round;">
    <g id="Layer-1">
        <g id="rect3165" transform="matrix(-1,0,0,1,0,0)">
            <rect x="-9.67" y="20.591" width="6.261" height="10.922" style="fill:rgb(51,51,51);stroke:black;stroke-width:1px;"/>
        </g>
        <g id="rect3167" transform="matrix(-1,0,0,1,0,0)">
            <rect x="-28.765" y="20.591" width="6.261" height="10.922" style="fill:rgb(51,51,51);stroke:black;stroke-width:1px;"/>
        </g>
        <path id="rect2383" d="M7.711,1.302L23.245,1.162C27.721,1.162 30.49,4.279 30.49,8.755L30.768,23.385C30.768,27.86 27.652,29.098 23.176,29.098L8.824,29.098C4.348,29.098 1.719,28.069 1.719,23.593L1.51,8.824C1.51,4.348 3.235,1.301 7.711,1.301L7.711,1.302Z" style="fill:rgb(235,171,0);fill-rule:nonzero;stroke:black;stroke-width:1px;"/>
        <path id="rect3169" d="M7.026,4.452C11.81,1.806 22.283,2.215 25.113,4.452C27.994,6.342 31.869,16.048 27.478,17.878C20.438,20.549 12.702,18.895 5.913,16.557C1.065,14.802 3.624,6.566 7.026,4.452L7.026,4.452Z" style="fill:white;fill-rule:nonzero;stroke:black;stroke-width:1px;"/>
        <g id="path3172" transform="matrix(1,0,0,1,2.3652,-0.34783)">
            <path d="M7.861,22.609C7.861,23.868 6.84,24.905 5.6,24.905C4.36,24.905 3.339,23.868 3.339,22.609C3.339,21.35 4.36,20.313 5.6,20.313C6.84,20.313 7.861,21.35 7.861,22.609Z" style="fill:white;fill-rule:nonzero;stroke:black;stroke-width:1px;"/>
        </g>
        <path id="path3174" d="M24.974,23.443C24.974,23.451 24.974,23.458 24.974,23.466C24.974,24.878 23.859,26.04 22.505,26.04C21.15,26.04 20.035,24.878 20.035,23.466C20.035,23.458 20.035,23.451 20.035,23.443C20.035,23.435 20.035,23.428 20.035,23.42C20.035,22.008 21.15,20.846 22.505,20.846C23.859,20.846 24.974,22.008 24.974,23.42C24.974,23.428 24.974,23.435 24.974,23.443Z" style="fill:white;fill-rule:nonzero;stroke:black;stroke-width:1px;"/>
    </g>
</svg>
